{
  "source": "C:\\Users\\Peter\\Desktop\\stuff\\MIUN\\quantitative_research\\video_compression\\videos\\HEVC_CLASS_B\\Kimono_1920x1080_24.y4m",
  "output": "C:\\Users\\Peter\\Desktop\\stuff\\MIUN\\quantitative_research\\video_compression\\compressed_videos\\HEVC_CLASS_B\\h264\\2.5\\Kimono_1920x1080_24_h264.mp4",
  "codec": "h264",
  "ok": "Input #0, yuv4mpegpipe, from 'C:\\Users\\Peter\\Desktop\\stuff\\MIUN\\quantitative_research\\video_compression\\videos\\HEVC_CLASS_B\\Kimono_1920x1080_24.y4m':\n  Duration: 00:00:10.00, start: 0.000000, bitrate: 597198 kb/s\n  Stream #0:0: Video: rawvideo (I420 / 0x30323449), yuv420p(progressive), 1920x1080, 24 fps, 24 tbr, 24 tbn\n[out#0/mp4 @ 000001d65582a640] Codec AVOption b:a (set bitrate (in bits/s)) has not been used for any stream. The most likely reason is either wrong type (e.g. a video option with no video streams) or that it is a private option of some decoder which was not actually used for any stream.\nStream mapping:\n  Stream #0:0 -> #0:0 (rawvideo (native) -> h264 (libx264))\nPress [q] to stop, [?] for help\n[libx264 @ 000001d65582cac0] using cpu capabilities: MMX2 SSE2Fast SSSE3 SSE4.2 AVX FMA3 BMI2 AVX2\n[libx264 @ 000001d65582cac0] profile High, level 5.0, 4:2:0, 8-bit\n[libx264 @ 000001d65582cac0] 264 - core 165 r3222 b35605a - H.264/MPEG-4 AVC codec - Copyleft 2003-2025 - http://www.videolan.org/x264.html - options: cabac=1 ref=5 deblock=1:0:0 analyse=0x3:0x113 me=hex subme=8 psy=1 psy_rd=1.00:0.00 mixed_ref=1 me_range=16 chroma_me=1 trellis=2 8x8dct=1 cqm=0 deadzone=21,11 fast_pskip=1 chroma_qp_offset=-2 threads=18 lookahead_threads=3 sliced_threads=0 nr=0 decimate=1 interlaced=0 bluray_compat=0 constrained_intra=0 bframes=3 b_pyramid=2 b_adapt=1 b_bias=0 direct=3 weightb=1 open_gop=0 weightp=2 keyint=250 keyint_min=24 scenecut=40 intra_refresh=0 rc_lookahead=50 rc=cbr mbtree=1 bitrate=2500 ratetol=1.0 qcomp=0.60 qpmin=0 qpmax=69 qpstep=4 vbv_maxrate=2500 vbv_bufsize=2500 nal_hrd=none filler=0 ip_ratio=1.40 aq=1:1.00\nOutput #0, mp4, to 'C:\\Users\\Peter\\Desktop\\stuff\\MIUN\\quantitative_research\\video_compression\\compressed_videos\\HEVC_CLASS_B\\h264\\2.5\\Kimono_1920x1080_24_h264.mp4':\n  Metadata:\n    encoder         : Lavf62.3.100\n  Stream #0:0: Video: h264 (avc1 / 0x31637661), yuv420p(tv, progressive), 1920x1080, q=2-31, 2500 kb/s, 24 fps, 12288 tbn\n    Metadata:\n      encoder         : Lavc62.11.100 libx264\n    Side data:\n      cpb: bitrate max/min/avg: 2500000/0/2500000 buffer size: 2500000 vbv_delay: N/A\nframe=    0 fps=0.0 q=0.0 size=       0KiB time=N/A bitrate=N/A speed=N/A elapsed=0:00:00.52    \nframe=    9 fps=8.6 q=36.0 size=       0KiB time=00:00:00.29 bitrate=   1.3kbits/s speed=0.28x elapsed=0:00:01.04    \nframe=   37 fps= 23 q=36.0 size=     256KiB time=00:00:01.45 bitrate=1438.3kbits/s speed=0.917x elapsed=0:00:01.59    \nframe=   62 fps= 29 q=36.0 size=     512KiB time=00:00:02.45 bitrate=1706.3kbits/s speed=1.16x elapsed=0:00:02.12    \nframe=   93 fps= 35 q=35.0 size=     768KiB time=00:00:03.75 bitrate=1677.8kbits/s speed=1.41x elapsed=0:00:02.65    \nframe=  117 fps= 37 q=35.0 size=    1024KiB time=00:00:04.79 bitrate=1750.7kbits/s speed= 1.5x elapsed=0:00:03.19    \nframe=  152 fps= 41 q=33.0 size=    1536KiB time=00:00:06.25 bitrate=2013.3kbits/s speed=1.69x elapsed=0:00:03.70    \nframe=  188 fps= 44 q=32.0 size=    1792KiB time=00:00:07.62 bitrate=1925.3kbits/s speed= 1.8x elapsed=0:00:04.23    \nframe=  225 fps= 47 q=-1.0 size=    2048KiB time=00:00:09.29 bitrate=1805.7kbits/s speed=1.95x elapsed=0:00:04.77    \n[mp4 @ 000001d65582b740] Starting second pass: moving the moov atom to the beginning of the file\n[out#0/mp4 @ 000001d65582a640] video:2252KiB audio:0KiB subtitle:0KiB other streams:0KiB global headers:0KiB muxing overhead: 0.163023%\nframe=  240 fps= 48 q=-1.0 Lsize=    2256KiB time=00:00:09.91 bitrate=1863.7kbits/s speed=1.99x elapsed=0:00:04.97    \n[libx264 @ 000001d65582cac0] frame I:2     Avg QP:30.29  size: 78663\n[libx264 @ 000001d65582cac0] frame P:60    Avg QP:32.50  size: 20760\n[libx264 @ 000001d65582cac0] frame B:178   Avg QP:36.37  size:  5071\n[libx264 @ 000001d65582cac0] consecutive B-frames:  0.8%  0.0%  2.5% 96.7%\n[libx264 @ 000001d65582cac0] mb I  I16..4: 19.9% 73.5%  6.6%\n[libx264 @ 000001d65582cac0] mb P  I16..4:  0.5%  3.4%  0.0%  P16..4: 44.0%  9.7%  5.3%  0.0%  0.0%    skip:37.0%\n[libx264 @ 000001d65582cac0] mb B  I16..4:  0.0%  0.1%  0.0%  B16..8: 44.5%  1.9%  0.2%  direct: 0.4%  skip:53.0%  L0:41.0% L1:58.0% BI: 0.9%\n[libx264 @ 000001d65582cac0] 8x8 transform intra:80.4% inter:87.3%\n[libx264 @ 000001d65582cac0] direct mvs  spatial:94.4% temporal:5.6%\n[libx264 @ 000001d65582cac0] coded y,uvDC,uvAC intra: 57.2% 47.6% 12.4% inter: 5.5% 4.3% 0.1%\n[libx264 @ 000001d65582cac0] i16 v,h,dc,p: 24% 27%  5% 44%\n[libx264 @ 000001d65582cac0] i8 v,h,dc,ddl,ddr,vr,hd,vl,hu:  6%  4%  3% 12% 17% 14% 17% 12% 14%\n[libx264 @ 000001d65582cac0] i4 v,h,dc,ddl,ddr,vr,hd,vl,hu:  5%  4%  2% 12% 17% 14% 19% 10% 17%\n[libx264 @ 000001d65582cac0] i8c dc,h,v,p: 54% 25% 12%  9%\n[libx264 @ 000001d65582cac0] Weighted P-Frames: Y:0.0% UV:0.0%\n[libx264 @ 000001d65582cac0] ref P L0: 59.4% 17.1% 15.3%  4.3%  3.9%\n[libx264 @ 000001d65582cac0] ref B L0: 91.9%  6.2%  1.5%  0.4%\n[libx264 @ 000001d65582cac0] ref B L1: 98.4%  1.6%\n[libx264 @ 000001d65582cac0] kb/s:1844.53\n",
  "seconds": 5.104997158050537,
  "probe_out": {}
}